<svg width="62" height="20" viewBox="0 0 62 20" fill="none" xmlns="http://www.w3.org/2000/svg">
<path d="M8.2795 8.5616C8.3342 8.2 8.4548 7.88219 8.6082 7.60822C8.7616 7.33425 8.9808 7.10411 9.2548 6.92877C9.5178 6.76438 9.8466 6.68767 10.2521 6.67671C10.5041 6.68767 10.7342 6.73151 10.9425 6.81918C11.1616 6.91781 11.3589 7.04932 11.5123 7.2137C11.6658 7.37808 11.7863 7.57534 11.8849 7.79452C11.9836 8.0137 12.0274 8.2548 12.0384 8.4959H14C13.9781 7.98082 13.8795 7.50959 13.6932 7.08219C13.5068 6.65479 13.2548 6.28219 12.926 5.97534C12.5973 5.66849 12.2027 5.4274 11.7425 5.25205C11.2822 5.07671 10.7781 5 10.2192 5C9.5068 5 8.8822 5.12055 8.3562 5.3726C7.83014 5.62466 7.39178 5.95342 7.0411 6.38082C6.69041 6.80822 6.4274 7.30137 6.26301 7.87123C6.09863 8.4411 6 9.0329 6 9.6685V9.9644C6 10.6 6.08767 11.1918 6.25205 11.7616C6.41644 12.3315 6.67945 12.8247 7.03014 13.2411C7.38082 13.6575 7.81918 13.9973 8.3452 14.2384C8.8712 14.4795 9.4959 14.611 10.2082 14.611C10.7233 14.611 11.2055 14.5233 11.6548 14.3589C12.1041 14.1945 12.4986 13.9644 12.8384 13.6685C13.1781 13.3726 13.4521 13.0329 13.6493 12.6384C13.8466 12.2438 13.9671 11.8274 13.9781 11.3781H12.0164C12.0055 11.6082 11.9507 11.8164 11.8521 12.0137C11.7534 12.211 11.6219 12.3753 11.4575 12.5178C11.2932 12.6603 11.1068 12.7699 10.8877 12.8466C10.6795 12.9233 10.4603 12.9452 10.2301 12.9562C9.8356 12.9452 9.5068 12.8685 9.2548 12.7041C8.9808 12.5288 8.7616 12.2986 8.6082 12.0247C8.4548 11.7507 8.3342 11.4219 8.2795 11.0603C8.2247 10.6986 8.1918 10.326 8.1918 9.9644V9.6685C8.1918 9.2849 8.2247 8.9233 8.2795 8.5616Z" fill="white"/>
<path fill-rule="evenodd" clip-rule="evenodd" d="M10 20C15.5228 20 20 15.5228 20 10C20 4.47715 15.5228 0 10 0C4.47715 0 0 4.47715 0 10C0 15.5228 4.47715 20 10 20ZM10 18C14.4183 18 18 14.4183 18 10C18 5.58172 14.4183 2 10 2C5.58172 2 2 5.58172 2 10C2 14.4183 5.58172 18 10 18Z" fill="white"/>
<path d="M23.3286 16V14.3381L27.2117 10.7425C27.542 10.4229 27.819 10.1353 28.0427 9.87962C28.27 9.62393 28.4422 9.37358 28.5594 9.12855C28.6766 8.87997 28.7352 8.61186 28.7352 8.32422C28.7352 8.00462 28.6624 7.7294 28.5168 7.49858C28.3712 7.2642 28.1723 7.08487 27.9202 6.96058C27.6681 6.83274 27.3822 6.76882 27.0626 6.76882C26.7288 6.76882 26.4376 6.83629 26.189 6.97124C25.9404 7.10618 25.7487 7.29972 25.6137 7.55185C25.4788 7.80398 25.4113 8.10405 25.4113 8.45206H23.222C23.222 7.73828 23.3836 7.11861 23.7068 6.59304C24.0299 6.06747 24.4827 5.66087 25.0651 5.37322C25.6475 5.08558 26.3186 4.94176 27.0786 4.94176C27.8598 4.94176 28.5399 5.08026 29.1187 5.35724C29.7011 5.63068 30.1539 6.01065 30.477 6.49716C30.8002 6.98366 30.9617 7.54119 30.9617 8.16974C30.9617 8.58168 30.8801 8.98828 30.7167 9.38956C30.5569 9.79084 30.271 10.2365 29.8591 10.7266C29.4472 11.2131 28.8666 11.7972 28.1173 12.479L26.5246 14.0398V14.1143H31.1056V16H23.3286ZM37.0542 16.2397C36.138 16.2362 35.3496 16.0107 34.6891 15.5632C34.0321 15.1158 33.5261 14.4677 33.171 13.619C32.8194 12.7702 32.6454 11.7493 32.649 10.5561C32.649 9.36648 32.8248 8.35263 33.1763 7.51456C33.5314 6.67649 34.0375 6.03906 34.6944 5.60227C35.3549 5.16193 36.1415 4.94176 37.0542 4.94176C37.9668 4.94176 38.7516 5.16193 39.4086 5.60227C40.0691 6.04261 40.5769 6.68182 40.932 7.51989C41.2871 8.3544 41.4629 9.36648 41.4593 10.5561C41.4593 11.7528 41.2818 12.7756 40.9267 13.6243C40.5751 14.473 40.0708 15.1211 39.4139 15.5685C38.7569 16.016 37.9703 16.2397 37.0542 16.2397ZM37.0542 14.3274C37.6792 14.3274 38.1781 14.0131 38.551 13.3846C38.9238 12.756 39.1085 11.8132 39.1049 10.5561C39.1049 9.72869 39.0197 9.03977 38.8493 8.48935C38.6824 7.93892 38.4444 7.52521 38.1355 7.24822C37.8301 6.97124 37.4696 6.83274 37.0542 6.83274C36.4327 6.83274 35.9355 7.14347 35.5627 7.76491C35.1898 8.38636 35.0016 9.31676 34.998 10.5561C34.998 11.3942 35.0815 12.0938 35.2484 12.6548C35.4189 13.2124 35.6586 13.6314 35.9675 13.9119C36.2765 14.1889 36.6387 14.3274 37.0542 14.3274ZM43.104 16V14.3381L46.9871 10.7425C47.3174 10.4229 47.5944 10.1353 47.8181 9.87962C48.0454 9.62393 48.2176 9.37358 48.3348 9.12855C48.452 8.87997 48.5106 8.61186 48.5106 8.32422C48.5106 8.00462 48.4378 7.7294 48.2922 7.49858C48.1466 7.2642 47.9477 7.08487 47.6956 6.96058C47.4434 6.83274 47.1576 6.76882 46.838 6.76882C46.5042 6.76882 46.213 6.83629 45.9644 6.97124C45.7158 7.10618 45.5241 7.29972 45.3891 7.55185C45.2542 7.80398 45.1867 8.10405 45.1867 8.45206H42.9974C42.9974 7.73828 43.159 7.11861 43.4822 6.59304C43.8053 6.06747 44.2581 5.66087 44.8405 5.37322C45.4229 5.08558 46.094 4.94176 46.854 4.94176C47.6352 4.94176 48.3153 5.08026 48.8941 5.35724C49.4765 5.63068 49.9292 6.01065 50.2524 6.49716C50.5756 6.98366 50.7371 7.54119 50.7371 8.16974C50.7371 8.58168 50.6555 8.98828 50.4921 9.38956C50.3323 9.79084 50.0464 10.2365 49.6345 10.7266C49.2226 11.2131 48.642 11.7972 47.8927 12.479L46.3 14.0398V14.1143H50.8809V16H43.104ZM56.5845 16.1491C55.7891 16.1491 55.0806 16.0124 54.4592 15.739C53.8413 15.462 53.353 15.082 52.9943 14.5991C52.6392 14.1126 52.4563 13.5515 52.4457 12.9158H54.7681C54.7823 13.1822 54.8693 13.4165 55.0291 13.619C55.1925 13.8178 55.4091 13.9723 55.679 14.0824C55.9489 14.1925 56.2525 14.2475 56.5898 14.2475C56.9414 14.2475 57.2521 14.1854 57.522 14.0611C57.7919 13.9368 58.0032 13.7646 58.1559 13.5444C58.3086 13.3242 58.3849 13.0703 58.3849 12.7827C58.3849 12.4915 58.3033 12.234 58.1399 12.0103C57.9801 11.783 57.7493 11.6055 57.4474 11.4776C57.1491 11.3498 56.794 11.2859 56.3821 11.2859H55.3647V9.59197H56.3821C56.7301 9.59197 57.0373 9.5316 57.3036 9.41087C57.5735 9.29013 57.783 9.12322 57.9322 8.91016C58.0813 8.69354 58.1559 8.44141 58.1559 8.15376C58.1559 7.88033 58.0902 7.64063 57.9588 7.43466C57.831 7.22514 57.6499 7.06179 57.4155 6.9446C57.1847 6.82741 56.9148 6.76882 56.6058 6.76882C56.2933 6.76882 56.0075 6.82564 55.7482 6.93928C55.489 7.04936 55.2812 7.20739 55.125 7.41335C54.9688 7.61932 54.8853 7.8608 54.8746 8.13778H52.6641C52.6747 7.50923 52.854 6.95526 53.2021 6.47585C53.5501 5.99645 54.0188 5.6218 54.6083 5.35192C55.2013 5.07848 55.8707 4.94176 56.6165 4.94176C57.3693 4.94176 58.0281 5.07848 58.5927 5.35192C59.1573 5.62535 59.5959 5.99467 59.9084 6.45987C60.2244 6.92152 60.3807 7.43999 60.3771 8.01527C60.3807 8.62607 60.1907 9.13565 59.8072 9.54403C59.4272 9.95241 58.9318 10.2116 58.321 10.3217V10.407C59.1236 10.5099 59.7344 10.7887 60.1534 11.2433C60.576 11.6942 60.7855 12.2589 60.782 12.9371C60.7855 13.5586 60.6062 14.1108 60.244 14.5938C59.8853 15.0767 59.3899 15.4567 58.7578 15.7337C58.1257 16.0107 57.4013 16.1491 56.5845 16.1491Z" fill="white"/>
</svg>
