<svg width="25" height="24" viewBox="0 0 25 24" fill="none" xmlns="http://www.w3.org/2000/svg">
<path d="M10.3282 10.5616C10.3829 10.2 10.5035 9.88219 10.6569 9.60822C10.8103 9.33425 11.0295 9.10411 11.3035 8.92877C11.5665 8.76438 11.8953 8.68767 12.3008 8.67671C12.5528 8.68767 12.7829 8.73151 12.9912 8.81918C13.2103 8.91781 13.4076 9.04932 13.561 9.2137C13.7145 9.37808 13.835 9.57534 13.9336 9.79452C14.0323 10.0137 14.0761 10.2548 14.0871 10.4959H16.0487C16.0268 9.98082 15.9282 9.50959 15.7419 9.08219C15.5555 8.65479 15.3035 8.28219 14.9747 7.97534C14.646 7.66849 14.2514 7.4274 13.7912 7.25205C13.3309 7.07671 12.8268 7 12.2679 7C11.5555 7 10.9309 7.12055 10.4049 7.3726C9.87885 7.62466 9.44049 7.95342 9.08981 8.38082C8.73912 8.80822 8.47611 9.30137 8.31172 9.87123C8.14734 10.4411 8.04871 11.0329 8.04871 11.6685V11.9644C8.04871 12.6 8.13638 13.1918 8.30076 13.7616C8.46515 14.3315 8.72816 14.8247 9.07885 15.2411C9.42953 15.6575 9.86789 15.9973 10.3939 16.2384C10.9199 16.4795 11.5446 16.611 12.2569 16.611C12.772 16.611 13.2542 16.5233 13.7035 16.3589C14.1528 16.1945 14.5473 15.9644 14.8871 15.6685C15.2268 15.3726 15.5008 15.0329 15.698 14.6384C15.8953 14.2438 16.0158 13.8274 16.0268 13.3781H14.0651C14.0542 13.6082 13.9994 13.8164 13.9008 14.0137C13.8021 14.211 13.6706 14.3753 13.5062 14.5178C13.3419 14.6603 13.1555 14.7699 12.9364 14.8466C12.7282 14.9233 12.509 14.9452 12.2788 14.9562C11.8843 14.9452 11.5555 14.8685 11.3035 14.7041C11.0295 14.5288 10.8103 14.2986 10.6569 14.0247C10.5035 13.7507 10.3829 13.4219 10.3282 13.0603C10.2734 12.6986 10.2405 12.326 10.2405 11.9644V11.6685C10.2405 11.2849 10.2734 10.9233 10.3282 10.5616Z" fill="black"/>
<path fill-rule="evenodd" clip-rule="evenodd" d="M12.0487 22C17.5715 22 22.0487 17.5228 22.0487 12C22.0487 6.47715 17.5715 2 12.0487 2C6.52586 2 2.04871 6.47715 2.04871 12C2.04871 17.5228 6.52586 22 12.0487 22ZM12.0487 20C16.467 20 20.0487 16.4183 20.0487 12C20.0487 7.58172 16.467 4 12.0487 4C7.63043 4 4.04871 7.58172 4.04871 12C4.04871 16.4183 7.63043 20 12.0487 20Z" fill="black"/>
</svg>
