<svg width="79" height="64" viewBox="0 0 79 64" fill="none" xmlns="http://www.w3.org/2000/svg">
<path d="M49.5716 19.6235H31.2435L20.4716 37.4752H28.4057L22.3027 61.8997L49.7088 30.8634H41.6422L49.5716 19.6235Z" fill="#FEE187"/>
<path d="M67.0401 12.2828C66.7539 11.6482 66.1221 11.24 65.426 11.24H60.7756L66.7355 2.79144C67.1168 2.25099 67.1651 1.54302 66.8608 0.955684C66.5563 0.368719 65.9501 0 65.2886 0H46.9605C46.3401 0 45.7649 0.324572 45.4442 0.855826L35.1882 17.8528H31.2434C30.623 17.8528 30.0478 18.1774 29.7271 18.7087L18.9555 36.5606C18.6256 37.1075 18.6158 37.7896 18.9297 38.346C19.2435 38.9024 19.8329 39.2462 20.4716 39.2462H26.1381L20.5847 61.4708C20.3869 62.2629 20.7561 63.0874 21.4786 63.4674C21.7396 63.6047 22.0219 63.6708 22.302 63.6708C22.7973 63.6708 23.2849 63.4629 23.63 63.0722L51.0361 32.0359C51.4969 31.5141 51.6091 30.7705 51.3227 30.1358C51.0366 29.5012 50.4047 29.0931 49.7087 29.0931H45.0583L51.0183 20.6445C51.3993 20.1041 51.4477 19.3961 51.1433 18.809C50.8388 18.2219 50.2326 17.8532 49.5711 17.8532H39.3244L47.96 3.54157H61.8723L55.9124 11.9901C55.5311 12.5306 55.4828 13.2386 55.7871 13.8259C56.0916 14.4131 56.6978 14.7817 57.3592 14.7817H61.5L56.0062 21.0032C55.3591 21.7363 55.4285 22.8552 56.1616 23.5026C56.4983 23.8 56.9164 23.946 57.3329 23.946C57.8232 23.946 58.3108 23.7435 58.6609 23.3473L66.7532 14.1831C67.2142 13.6609 67.3265 12.9173 67.0401 12.2828ZM40.1954 29.843C39.8143 30.3834 39.7659 31.0914 40.0704 31.6785C40.3748 32.2656 40.981 32.6343 41.6425 32.6343H45.7832L25.7806 55.2864L30.1239 37.9048C30.256 37.3759 30.137 36.8154 29.8016 36.3856C29.4658 35.9559 28.9511 35.7047 28.4059 35.7047H23.6082L32.2431 21.3944H46.1553L40.1954 29.843Z" fill="white"/>
<g filter="url(#filter0_d_522_148)">
<path d="M0 49.0942V20.0554H19.2269V25.1173H6.13956V32.0367H17.9508V37.0987H6.13956V49.0942H0Z" fill="black"/>
</g>
<g filter="url(#filter1_d_522_148)">
<path d="M55.0765 49.0942V20.0554H66.5332C68.7357 20.0554 70.6121 20.476 72.1623 21.3173C73.7126 22.1492 74.8942 23.3071 75.7071 24.7912C76.5295 26.2658 76.9407 27.9673 76.9407 29.8957C76.9407 31.8241 76.5248 33.5255 75.6929 35.0002C74.8611 36.4748 73.6558 37.6233 72.0772 38.4457C70.5081 39.2681 68.6081 39.6793 66.3772 39.6793H59.075V34.7591H65.3847C66.5663 34.7591 67.5399 34.5559 68.3056 34.1494C69.0807 33.7335 69.6573 33.1616 70.0354 32.4338C70.423 31.6964 70.6168 30.8504 70.6168 29.8957C70.6168 28.9315 70.423 28.0902 70.0354 27.3718C69.6573 26.644 69.0807 26.0815 68.3056 25.6845C67.5305 25.278 66.5474 25.0748 65.3563 25.0748H61.216V49.0942H55.0765Z" fill="black"/>
</g>
<defs>
<filter id="filter0_d_522_148" x="0" y="20.0554" width="21.081" height="30.893" filterUnits="userSpaceOnUse" color-interpolation-filters="sRGB">
<feFlood flood-opacity="0" result="BackgroundImageFix"/>
<feColorMatrix in="SourceAlpha" type="matrix" values="0 0 0 0 0 0 0 0 0 0 0 0 0 0 0 0 0 0 127 0" result="hardAlpha"/>
<feOffset dx="1.85415" dy="1.85415"/>
<feComposite in2="hardAlpha" operator="out"/>
<feColorMatrix type="matrix" values="0 0 0 0 1 0 0 0 0 1 0 0 0 0 1 0 0 0 1 0"/>
<feBlend mode="normal" in2="BackgroundImageFix" result="effect1_dropShadow_522_148"/>
<feBlend mode="normal" in="SourceGraphic" in2="effect1_dropShadow_522_148" result="shape"/>
</filter>
<filter id="filter1_d_522_148" x="55.0765" y="20.0554" width="23.7183" height="30.893" filterUnits="userSpaceOnUse" color-interpolation-filters="sRGB">
<feFlood flood-opacity="0" result="BackgroundImageFix"/>
<feColorMatrix in="SourceAlpha" type="matrix" values="0 0 0 0 0 0 0 0 0 0 0 0 0 0 0 0 0 0 127 0" result="hardAlpha"/>
<feOffset dx="1.85415" dy="1.85415"/>
<feComposite in2="hardAlpha" operator="out"/>
<feColorMatrix type="matrix" values="0 0 0 0 1 0 0 0 0 1 0 0 0 0 1 0 0 0 1 0"/>
<feBlend mode="normal" in2="BackgroundImageFix" result="effect1_dropShadow_522_148"/>
<feBlend mode="normal" in="SourceGraphic" in2="effect1_dropShadow_522_148" result="shape"/>
</filter>
</defs>
</svg>
