<svg width="50" height="50" viewBox="0 0 50 50" fill="none" xmlns="http://www.w3.org/2000/svg">
<path d="M22.7084 4.37491C13.125 5.41658 5.41669 13.1249 4.37502 22.4999C3.33335 32.2916 8.95835 41.0416 17.5 44.3749C18.125 44.5832 18.75 44.1666 18.75 43.3332V39.9999C18.75 39.9999 17.9167 40.2082 16.875 40.2082C13.9584 40.2082 12.7084 37.7082 12.5 36.2499C12.2917 35.4166 11.875 34.7916 11.25 34.1666C10.625 33.9582 10.4167 33.9582 10.4167 33.7499C10.4167 33.3332 11.0417 33.3332 11.25 33.3332C12.5 33.3332 13.5417 34.7916 13.9584 35.4166C15 37.0832 16.25 37.4999 16.875 37.4999C17.7084 37.4999 18.3334 37.2916 18.75 37.0832C18.9584 35.6249 19.5834 34.1666 20.8334 33.3332C16.0417 32.2916 12.5 29.5832 12.5 24.9999C12.5 22.7082 13.5417 20.4166 15 18.7499C14.7917 18.3332 14.5834 17.2916 14.5834 15.8332C14.5834 14.9999 14.5834 13.9582 15 13.1249C15 12.7082 15.4167 12.4999 15.625 12.4999H15.8334C16.875 12.7082 18.9584 13.3332 20.8334 15.2082C22.0834 14.7916 23.5417 14.5832 25 14.5832C26.4584 14.5832 27.9167 14.7916 29.1667 15.2082C31.0417 13.3332 33.3334 12.7082 34.375 12.4999H34.5834C35 12.4999 35.2084 12.7082 35.4167 13.1249C35.4167 13.9582 35.4167 14.9999 35.4167 15.8332C35.4167 17.4999 35.2084 18.3332 35 18.7499C36.4584 20.4166 37.5 22.4999 37.5 24.9999C37.5 29.5832 33.9584 32.2916 29.1667 33.3332C30.4167 34.3749 31.25 36.2499 31.25 38.1249V43.5416C31.25 44.1666 31.875 44.7916 32.7084 44.5832C40.4167 41.4582 45.8334 33.9582 45.8334 25.2082C45.8334 12.7082 35.2084 2.91658 22.7084 4.37491Z" fill="black"/>
</svg>
