<svg width="65" height="65" viewBox="0 0 65 65" fill="none" xmlns="http://www.w3.org/2000/svg">
<path d="M39.261 20.0331H20.5503L9.55347 38.2575H17.6532L11.4229 63.1918L39.401 31.5076H31.1661L39.261 20.0331Z" fill="#FEE187"/>
<path d="M57.0941 12.5392C56.802 11.8913 56.157 11.4747 55.4464 11.4747H50.6989L56.7832 2.84972C57.1725 2.29798 57.2217 1.57523 56.9111 0.975635C56.6003 0.376416 55.9814 0 55.3061 0H36.5954C35.962 0 35.3749 0.331348 35.0474 0.873691L24.5774 18.2255H20.5502C19.9168 18.2255 19.3296 18.5569 19.0022 19.0992L8.0058 37.3238C7.66899 37.8822 7.65896 38.5785 7.97939 39.1465C8.29982 39.7145 8.90145 40.0655 9.55348 40.0655H15.3384L9.66901 62.7541C9.46703 63.5626 9.84395 64.4043 10.5815 64.7923C10.848 64.9325 11.1362 65 11.4221 65C11.9278 65 12.4255 64.7877 12.7778 64.3888L40.756 32.7046C41.2265 32.172 41.341 31.4129 41.0486 30.7649C40.7565 30.1171 40.1115 29.7004 39.4009 29.7004H34.6535L40.7379 21.0755C41.1269 20.5237 41.1762 19.801 40.8655 19.2017C40.5547 18.6023 39.9358 18.2259 39.2605 18.2259H28.7998L37.6157 3.6155H51.8185L45.7341 12.2404C45.3449 12.7922 45.2956 13.5149 45.6063 14.1145C45.917 14.714 46.5359 15.0903 47.2112 15.0903H51.4384L45.83 21.4416C45.1693 22.19 45.2401 23.3323 45.9885 23.9933C46.3323 24.2968 46.7591 24.4458 47.1843 24.4458C47.6849 24.4458 48.1827 24.2392 48.54 23.8347L56.8012 14.4791C57.2719 13.9461 57.3865 13.187 57.0941 12.5392ZM29.689 30.466C29.3 31.0177 29.2506 31.7404 29.5614 32.3398C29.8722 32.9391 30.4911 33.3155 31.1664 33.3155H35.3935L14.9734 56.4406L19.4073 38.6961C19.5422 38.1561 19.4207 37.584 19.0783 37.1452C18.7355 36.7065 18.21 36.45 17.6535 36.45H12.7556L21.5707 21.841H35.7734L29.689 30.466Z" fill="#FFC61B"/>
</svg>
