<svg width="79" height="104" viewBox="0 0 79 104" fill="none" xmlns="http://www.w3.org/2000/svg">
<path d="M78.2122 19.8734C77.7492 18.8466 76.7269 18.1863 75.6007 18.1863H68.0763L77.7195 4.51653C78.3364 3.64208 78.4144 2.4966 77.9221 1.54629C77.4295 0.596584 76.4486 0 75.3784 0H45.7237C44.7198 0 43.7892 0.525155 43.2703 1.38472L26.6762 28.8857H20.2935C19.2897 28.8857 18.3591 29.4109 17.8401 30.2704L0.411847 59.1548C-0.121959 60.0397 -0.137855 61.1433 0.369996 62.0435C0.877847 62.9437 1.83137 63.5001 2.86478 63.5001H12.0333L3.04788 99.4593C2.72776 100.741 3.32515 102.075 4.49417 102.69C4.91651 102.912 5.37325 103.019 5.82637 103.019C6.62779 103.019 7.41673 102.682 7.97508 102.05L52.3179 51.8338C53.0636 50.9895 53.245 49.7865 52.7817 48.7595C52.3187 47.7327 51.2963 47.0724 50.1702 47.0724H42.646L52.2891 33.4027C52.9056 32.5282 52.9839 31.3827 52.4913 30.4328C51.9988 29.4829 51.0179 28.8863 49.9476 28.8863H33.3684L47.3408 5.73022H69.8508L60.2077 19.3999C59.5908 20.2744 59.5127 21.4199 60.005 22.3702C60.4976 23.3203 61.4785 23.9167 62.5487 23.9167H69.2484L60.3596 33.9829C59.3125 35.1691 59.4248 36.9795 60.6109 38.027C61.1558 38.5081 61.8322 38.7443 62.5061 38.7443C63.2994 38.7443 64.0884 38.4168 64.6548 37.7757L77.748 22.9481C78.4939 22.1032 78.6756 20.9002 78.2122 19.8734ZM34.7777 48.2857C34.1612 49.1601 34.0829 50.3056 34.5755 51.2555C35.068 52.2054 36.0489 52.802 37.1192 52.802H43.8188L11.4548 89.453L18.4822 61.3296C18.6959 60.4739 18.5033 59.567 17.9607 58.8717C17.4174 58.1763 16.5846 57.7698 15.7025 57.7698H7.93987L21.911 34.6159H44.4208L34.7777 48.2857Z" fill="black"/>
</svg>
