<svg width="250" height="59" viewBox="0 0 250 59" fill="none" xmlns="http://www.w3.org/2000/svg">
<path d="M172.261 18.1838H153.55L142.553 34.726H150.653L144.423 57.3587L172.401 28.5992H164.166L172.261 18.1838Z" fill="#FEE187"/>
<path d="M190.094 11.3817C189.802 10.7937 189.157 10.4155 188.446 10.4155H183.699L189.783 2.58667C190.172 2.08586 190.222 1.42983 189.911 0.885576C189.6 0.34167 188.981 0 188.306 0H169.595C168.962 0 168.375 0.300762 168.047 0.793043L157.577 16.5432H153.55C152.917 16.5432 152.33 16.8439 152.002 17.3362L141.006 33.8786C140.669 34.3854 140.659 35.0174 140.979 35.533C141.3 36.0485 141.901 36.3672 142.554 36.3672H148.338L142.669 56.9614C142.467 57.6953 142.844 58.4593 143.582 58.8115C143.848 58.9387 144.136 59 144.422 59C144.928 59 145.426 58.8073 145.778 58.4453L173.756 29.6858C174.227 29.2022 174.341 28.5132 174.049 27.9251C173.757 27.337 173.112 26.9589 172.401 26.9589H167.654L173.738 19.1301C174.127 18.6292 174.176 17.9732 173.865 17.4292C173.555 16.8852 172.936 16.5435 172.261 16.5435H161.8L170.616 3.28176H184.818L178.734 11.1106C178.345 11.6114 178.296 12.2674 178.606 12.8116C178.917 13.3558 179.536 13.6973 180.211 13.6973H184.438L178.83 19.4624C178.169 20.1417 178.24 21.1786 178.989 21.7785C179.332 22.054 179.759 22.1893 180.184 22.1893C180.685 22.1893 181.183 22.0017 181.54 21.6346L189.801 13.1426C190.272 12.6587 190.387 11.9697 190.094 11.3817ZM162.689 27.6537C162.3 28.1545 162.251 28.8106 162.561 29.3546C162.872 29.8986 163.491 30.2403 164.166 30.2403H168.394L147.973 51.2307L152.407 35.1241C152.542 34.634 152.421 34.1147 152.078 33.7164C151.736 33.3182 151.21 33.0854 150.654 33.0854H145.756L154.571 19.8249H168.773L162.689 27.6537Z" fill="#FFC61B"/>
<g filter="url(#filter0_d_508_464)">
<path d="M7.68628 43H0.969832L11.2037 13.355H19.2808L29.5003 43H22.7838L15.3581 20.1293H15.1265L7.68628 43ZM7.26651 31.3475H23.1312V36.2401H7.26651V31.3475ZM33.0684 43V13.355H44.938C47.1189 13.355 48.9379 13.6783 50.3951 14.3248C51.8523 14.9714 52.9475 15.8688 53.6809 17.0172C54.4144 18.1559 54.7811 19.4683 54.7811 20.9544C54.7811 22.1124 54.5495 23.1305 54.0862 24.0087C53.623 24.8772 52.9861 25.5913 52.1755 26.151C51.3746 26.701 50.4578 27.0919 49.4253 27.3235V27.613C50.5543 27.6612 51.611 27.9797 52.5953 28.5683C53.5893 29.157 54.3951 29.9821 55.0127 31.0436C55.6303 32.0954 55.9391 33.3499 55.9391 34.8071C55.9391 36.38 55.5482 37.7841 54.7666 39.0193C53.9946 40.2449 52.851 41.2147 51.336 41.9288C49.8209 42.6429 47.9536 43 45.7341 43H33.0684ZM39.3361 37.8758H44.4458C46.1925 37.8758 47.4663 37.5429 48.2673 36.877C49.0682 36.2015 49.4687 35.3041 49.4687 34.1847C49.4687 33.3644 49.2709 32.6406 48.8752 32.0134C48.4796 31.3861 47.915 30.894 47.1816 30.5369C46.4579 30.1799 45.5942 30.0014 44.5906 30.0014H39.3361V37.8758ZM39.3361 25.7601H43.9826C44.8415 25.7601 45.6038 25.6106 46.2697 25.3114C46.9452 25.0026 47.4759 24.5684 47.862 24.0087C48.2576 23.449 48.4554 22.7783 48.4554 21.9966C48.4554 20.9255 48.0743 20.0618 47.3119 19.4056C46.5592 18.7494 45.488 18.4213 44.0984 18.4213H39.3361V25.7601ZM87.2596 28.1775C87.2596 31.4103 86.6468 34.1605 85.4212 36.4283C84.2053 38.6961 82.5455 40.4283 80.4418 41.6249C78.3477 42.8118 75.9931 43.4053 73.378 43.4053C70.7435 43.4053 68.3792 42.807 66.2851 41.6104C64.1911 40.4138 62.5361 38.6816 61.3202 36.4138C60.1043 34.1461 59.4963 31.4006 59.4963 28.1775C59.4963 24.9447 60.1043 22.1944 61.3202 19.9267C62.5361 17.6589 64.1911 15.9315 66.2851 14.7446C68.3792 13.548 70.7435 12.9497 73.378 12.9497C75.9931 12.9497 78.3477 13.548 80.4418 14.7446C82.5455 15.9315 84.2053 17.6589 85.4212 19.9267C86.6468 22.1944 87.2596 24.9447 87.2596 28.1775ZM80.905 28.1775C80.905 26.0834 80.5914 24.3175 79.9641 22.8796C79.3465 21.4417 78.4732 20.3513 77.3441 19.6082C76.2151 18.8652 74.893 18.4936 73.378 18.4936C71.8629 18.4936 70.5408 18.8652 69.4118 19.6082C68.2827 20.3513 67.4046 21.4417 66.7773 22.8796C66.1597 24.3175 65.8509 26.0834 65.8509 28.1775C65.8509 30.2716 66.1597 32.0375 66.7773 33.4754C67.4046 34.9132 68.2827 36.0037 69.4118 36.7468C70.5408 37.4898 71.8629 37.8613 73.378 37.8613C74.893 37.8613 76.2151 37.4898 77.3441 36.7468C78.4732 36.0037 79.3465 34.9132 79.9641 33.4754C80.5914 32.0375 80.905 30.2716 80.905 28.1775ZM110.213 13.355H116.481V32.6069C116.481 34.7685 115.965 36.6599 114.932 38.2811C113.909 39.9023 112.476 41.1665 110.633 42.0736C108.79 42.971 106.643 43.4198 104.192 43.4198C101.731 43.4198 99.5791 42.971 97.7359 42.0736C95.8928 41.1665 94.4597 39.9023 93.4368 38.2811C92.4139 36.6599 91.9025 34.7685 91.9025 32.6069V13.355H98.1702V32.0713C98.1702 33.2004 98.4163 34.204 98.9084 35.0821C99.4102 35.9603 100.115 36.6503 101.022 37.1521C101.929 37.6539 102.986 37.9048 104.192 37.9048C105.408 37.9048 106.464 37.6539 107.362 37.1521C108.269 36.6503 108.969 35.9603 109.461 35.0821C109.963 34.204 110.213 33.2004 110.213 32.0713V13.355ZM120.509 18.5226V13.355H144.856V18.5226H135.78V43H129.585V18.5226H120.509Z" fill="black"/>
</g>
<g filter="url(#filter1_d_508_464)">
<path d="M187.577 13.355H195.306L203.47 33.2727H203.818L211.982 13.355H219.711V43H213.632V23.7047H213.386L205.714 42.8552H201.574L193.902 23.6323H193.656V43H187.577V13.355ZM224.875 43V13.355H244.851V18.5226H231.143V25.5864H243.823V30.7541H231.143V37.8324H244.909V43H224.875Z" fill="black"/>
</g>
<defs>
<filter id="filter0_d_508_464" x="0.969849" y="12.9497" width="146.604" height="33.1876" filterUnits="userSpaceOnUse" color-interpolation-filters="sRGB">
<feFlood flood-opacity="0" result="BackgroundImageFix"/>
<feColorMatrix in="SourceAlpha" type="matrix" values="0 0 0 0 0 0 0 0 0 0 0 0 0 0 0 0 0 0 127 0" result="hardAlpha"/>
<feOffset dx="2.71746" dy="2.71746"/>
<feComposite in2="hardAlpha" operator="out"/>
<feColorMatrix type="matrix" values="0 0 0 0 1 0 0 0 0 0.776471 0 0 0 0 0.105882 0 0 0 1 0"/>
<feBlend mode="normal" in2="BackgroundImageFix" result="effect1_dropShadow_508_464"/>
<feBlend mode="normal" in="SourceGraphic" in2="effect1_dropShadow_508_464" result="shape"/>
</filter>
<filter id="filter1_d_508_464" x="187.577" y="13.355" width="60.0497" height="32.3625" filterUnits="userSpaceOnUse" color-interpolation-filters="sRGB">
<feFlood flood-opacity="0" result="BackgroundImageFix"/>
<feColorMatrix in="SourceAlpha" type="matrix" values="0 0 0 0 0 0 0 0 0 0 0 0 0 0 0 0 0 0 127 0" result="hardAlpha"/>
<feOffset dx="2.71746" dy="2.71746"/>
<feComposite in2="hardAlpha" operator="out"/>
<feColorMatrix type="matrix" values="0 0 0 0 1 0 0 0 0 0.776471 0 0 0 0 0.105882 0 0 0 1 0"/>
<feBlend mode="normal" in2="BackgroundImageFix" result="effect1_dropShadow_508_464"/>
<feBlend mode="normal" in="SourceGraphic" in2="effect1_dropShadow_508_464" result="shape"/>
</filter>
</defs>
</svg>
