<svg width="40" height="43" viewBox="0 0 40 43" fill="none" xmlns="http://www.w3.org/2000/svg">
<g filter="url(#filter0_d_523_157)">
<path d="M0.881404 0.000125011C0.766248 -0.00221753 0.651916 0.0283833 0.545053 0.0901501C0.438191 0.151917 0.340928 0.243618 0.258918 0.359923C0.176908 0.476228 0.111787 0.614817 0.0673382 0.767637C0.0228894 0.920458 0 1.08446 0 1.25012C0 1.41577 0.0228894 1.57978 0.0673382 1.7326C0.111787 1.88542 0.176908 2.02401 0.258918 2.14031C0.340928 2.25662 0.438191 2.34832 0.545053 2.41008C0.651916 2.47185 0.766248 2.50245 0.881404 2.50011H39.1186C39.2338 2.50245 39.3481 2.47185 39.4549 2.41008C39.5618 2.34832 39.6591 2.25662 39.7411 2.14031C39.8231 2.02401 39.8882 1.88542 39.9327 1.7326C39.9771 1.57978 40 1.41577 40 1.25012C40 1.08446 39.9771 0.920458 39.9327 0.767637C39.8882 0.614817 39.8231 0.476228 39.7411 0.359923C39.6591 0.243618 39.5618 0.151917 39.4549 0.0901501C39.3481 0.0283833 39.2338 -0.00221753 39.1186 0.000125011H0.881404ZM0.881404 18.75C0.766248 18.7477 0.651916 18.7783 0.545053 18.84C0.438191 18.9018 0.340928 18.9935 0.258918 19.1098C0.176908 19.2261 0.111787 19.3647 0.0673382 19.5175C0.0228894 19.6703 0 19.8343 0 20C0 20.1657 0.0228894 20.3297 0.0673382 20.4825C0.111787 20.6353 0.176908 20.7739 0.258918 20.8902C0.340928 21.0065 0.438191 21.0982 0.545053 21.16C0.651916 21.2217 0.766248 21.2523 0.881404 21.25H39.1186C39.2338 21.2523 39.3481 21.2217 39.4549 21.16C39.5618 21.0982 39.6591 21.0065 39.7411 20.8902C39.8231 20.7739 39.8882 20.6353 39.9327 20.4825C39.9771 20.3297 40 20.1657 40 20C40 19.8343 39.9771 19.6703 39.9327 19.5175C39.8882 19.3647 39.8231 19.2261 39.7411 19.1098C39.6591 18.9935 39.5618 18.9018 39.4549 18.84C39.3481 18.7783 39.2338 18.7477 39.1186 18.75H0.881404ZM0.881404 37.4999C0.766248 37.4975 0.651916 37.5282 0.545053 37.5899C0.438191 37.6517 0.340928 37.7434 0.258918 37.8597C0.176908 37.976 0.111787 38.1146 0.0673382 38.2674C0.0228894 38.4202 0 38.5842 0 38.7499C0 38.9155 0.0228894 39.0795 0.0673382 39.2324C0.111787 39.3852 0.176908 39.5238 0.258918 39.6401C0.340928 39.7564 0.438191 39.8481 0.545053 39.9098C0.651916 39.9716 0.766248 40.0022 0.881404 39.9999H39.1186C39.2338 40.0022 39.3481 39.9716 39.4549 39.9098C39.5618 39.8481 39.6591 39.7564 39.7411 39.6401C39.8231 39.5238 39.8882 39.3852 39.9327 39.2324C39.9771 39.0795 40 38.9155 40 38.7499C40 38.5842 39.9771 38.4202 39.9327 38.2674C39.8882 38.1146 39.8231 37.976 39.7411 37.8597C39.6591 37.7434 39.5618 37.6517 39.4549 37.5899C39.3481 37.5282 39.2338 37.4975 39.1186 37.4999H0.881404Z" fill="black"/>
</g>
<defs>
<filter id="filter0_d_523_157" x="0" y="0" width="40" height="43" filterUnits="userSpaceOnUse" color-interpolation-filters="sRGB">
<feFlood flood-opacity="0" result="BackgroundImageFix"/>
<feColorMatrix in="SourceAlpha" type="matrix" values="0 0 0 0 0 0 0 0 0 0 0 0 0 0 0 0 0 0 127 0" result="hardAlpha"/>
<feOffset dy="3"/>
<feComposite in2="hardAlpha" operator="out"/>
<feColorMatrix type="matrix" values="0 0 0 0 1 0 0 0 0 1 0 0 0 0 1 0 0 0 1 0"/>
<feBlend mode="normal" in2="BackgroundImageFix" result="effect1_dropShadow_523_157"/>
<feBlend mode="normal" in="SourceGraphic" in2="effect1_dropShadow_523_157" result="shape"/>
</filter>
</defs>
</svg>
