<svg width="361" height="65" viewBox="0 0 361 65" fill="none" xmlns="http://www.w3.org/2000/svg">
<path d="M172.261 20.0331H153.55L142.553 38.2575H150.653L144.423 63.1918L172.401 31.5076H164.166L172.261 20.0331Z" fill="#FEE187"/>
<path d="M190.094 12.5392C189.802 11.8913 189.157 11.4747 188.446 11.4747H183.699L189.783 2.84972C190.172 2.29798 190.222 1.57523 189.911 0.975635C189.6 0.376416 188.981 0 188.306 0H169.595C168.962 0 168.375 0.331348 168.047 0.873691L157.577 18.2255H153.55C152.917 18.2255 152.33 18.5569 152.002 19.0992L141.006 37.3238C140.669 37.8822 140.659 38.5785 140.979 39.1465C141.3 39.7145 141.901 40.0655 142.553 40.0655H148.338L142.669 62.7541C142.467 63.5626 142.844 64.4043 143.582 64.7923C143.848 64.9325 144.136 65 144.422 65C144.928 65 145.426 64.7877 145.778 64.3888L173.756 32.7046C174.227 32.172 174.341 31.4129 174.049 30.7649C173.757 30.1171 173.111 29.7004 172.401 29.7004H167.654L173.738 21.0755C174.127 20.5237 174.176 19.801 173.865 19.2017C173.555 18.6023 172.936 18.2259 172.261 18.2259H161.8L170.616 3.6155H184.818L178.734 12.2404C178.345 12.7922 178.296 13.5149 178.606 14.1145C178.917 14.714 179.536 15.0903 180.211 15.0903H184.438L178.83 21.4416C178.169 22.19 178.24 23.3323 178.989 23.9933C179.332 24.2968 179.759 24.4458 180.184 24.4458C180.685 24.4458 181.183 24.2392 181.54 23.8347L189.801 14.4791C190.272 13.9461 190.387 13.187 190.094 12.5392ZM162.689 30.466C162.3 31.0177 162.251 31.7404 162.561 32.3398C162.872 32.9391 163.491 33.3155 164.166 33.3155H168.394L147.973 56.4406L152.407 38.6961C152.542 38.1561 152.421 37.584 152.078 37.1452C151.735 36.7065 151.21 36.45 150.653 36.45H145.756L154.571 21.841H168.773L162.689 30.466Z" fill="#FFC61B"/>
<g filter="url(#filter0_d_498_314)">
<path d="M9.74378 50V20.355H29.372V25.5226H16.0115V32.5864H28.0693V37.7541H16.0115V50H9.74378ZM33.5879 50V20.355H39.8556V44.8324H52.5648V50H33.5879ZM62.5816 50H55.8651L66.099 20.355H74.1761L84.3955 50H77.6791L70.2534 27.1293H70.0218L62.5816 50ZM62.1618 38.3475H78.0265V43.2401H62.1618V38.3475ZM103.369 28.8808C103.253 27.7132 102.756 26.806 101.878 26.1595C101 25.5129 99.8079 25.1897 98.3025 25.1897C97.2796 25.1897 96.4159 25.3344 95.7115 25.6239C95.007 25.9038 94.4666 26.2946 94.0903 26.7964C93.7235 27.2982 93.5402 27.8676 93.5402 28.5045C93.5209 29.0352 93.6319 29.4984 93.8731 29.8941C94.124 30.2897 94.4666 30.6323 94.9009 30.9218C95.3351 31.2017 95.8369 31.4477 96.4063 31.66C96.9756 31.8627 97.5836 32.0364 98.2301 32.1811L100.894 32.818C102.187 33.1075 103.374 33.4935 104.454 33.9761C105.535 34.4586 106.471 35.052 107.263 35.7565C108.054 36.4609 108.667 37.2909 109.101 38.2462C109.545 39.2016 109.772 40.2969 109.781 41.5321C109.772 43.3463 109.308 44.9192 108.392 46.2509C107.485 47.573 106.172 48.6007 104.454 49.3341C102.746 50.0579 100.686 50.4198 98.2736 50.4198C95.8803 50.4198 93.7959 50.0531 92.0203 49.3197C90.2543 48.5863 88.8744 47.5006 87.8804 46.0628C86.8961 44.6153 86.3798 42.8252 86.3316 40.6925H92.3967C92.4642 41.6865 92.7489 42.5164 93.2507 43.1822C93.7621 43.8384 94.4425 44.3354 95.2917 44.6732C96.1505 45.0013 97.1204 45.1653 98.2012 45.1653C99.2627 45.1653 100.184 45.0109 100.966 44.7021C101.757 44.3933 102.37 43.9639 102.804 43.4138C103.239 42.8638 103.456 42.2317 103.456 41.5176C103.456 40.8517 103.258 40.292 102.862 39.8385C102.476 39.3849 101.907 38.9989 101.154 38.6805C100.411 38.362 99.4991 38.0725 98.4183 37.812L95.1904 37.0014C92.691 36.3934 90.7176 35.4429 89.27 34.1498C87.8225 32.8566 87.1036 31.1148 87.1132 28.9242C87.1036 27.1293 87.5813 25.5612 88.5463 24.2198C89.5209 22.8785 90.8575 21.8314 92.5559 21.0787C94.2543 20.326 96.1843 19.9497 98.3459 19.9497C100.546 19.9497 102.467 20.326 104.107 21.0787C105.757 21.8314 107.041 22.8785 107.957 24.2198C108.874 25.5612 109.347 27.1149 109.376 28.8808H103.369ZM113.997 50V20.355H120.265V32.5864H132.988V20.355H139.242V50H132.988V37.7541H120.265V50H113.997Z" fill="black"/>
</g>
<g filter="url(#filter1_d_498_314)">
<path d="M176.716 50V20.355H188.412C190.66 20.355 192.576 20.7844 194.158 21.6433C195.741 22.4925 196.947 23.6746 197.777 25.1897C198.617 26.6951 199.036 28.4321 199.036 30.4007C199.036 32.3693 198.612 34.1063 197.763 35.6117C196.913 37.1172 195.683 38.2896 194.071 39.1292C192.469 39.9687 190.53 40.3885 188.252 40.3885H180.798V35.3657H187.239C188.445 35.3657 189.439 35.1582 190.221 34.7432C191.012 34.3186 191.601 33.7348 191.987 32.9917C192.383 32.239 192.58 31.3754 192.58 30.4007C192.58 29.4164 192.383 28.5575 191.987 27.8241C191.601 27.0811 191.012 26.5069 190.221 26.1016C189.43 25.6866 188.426 25.4792 187.21 25.4792H182.983V50H176.716ZM204.794 50H198.077L208.311 20.355H216.388L226.608 50H219.891L212.466 27.1293H212.234L204.794 50ZM204.374 38.3475H220.239V43.2401H204.374V38.3475ZM230.176 50V20.355H241.872C244.111 20.355 246.021 20.7555 247.604 21.5564C249.196 22.3477 250.407 23.4719 251.237 24.9291C252.077 26.3766 252.497 28.0799 252.497 30.0388C252.497 32.0074 252.072 33.701 251.223 35.1196C250.374 36.5285 249.143 37.6093 247.532 38.362C245.93 39.1147 243.99 39.4911 241.713 39.4911H233.882V34.4537H240.699C241.896 34.4537 242.89 34.2897 243.681 33.9616C244.472 33.6335 245.061 33.1413 245.447 32.4851C245.843 31.8289 246.041 31.0135 246.041 30.0388C246.041 29.0545 245.843 28.2246 245.447 27.5491C245.061 26.8736 244.468 26.3621 243.667 26.0147C242.875 25.6577 241.877 25.4792 240.67 25.4792H236.444V50H230.176ZM246.185 36.5092L253.553 50H246.634L239.425 36.5092H246.185ZM256.926 50V20.355H263.194V33.426H263.584L274.253 20.355H281.765L270.764 33.6287L281.895 50H274.397L266.277 37.812L263.194 41.5755V50H256.926ZM291.297 20.355V50H285.029V20.355H291.297ZM321.25 20.355V50H315.836L302.939 31.3416H302.722V50H296.454V20.355H301.954L314.75 38.9989H315.011V20.355H321.25ZM346.085 29.9375C345.883 29.233 345.598 28.6106 345.231 28.0702C344.865 27.5202 344.416 27.057 343.885 26.6806C343.364 26.2946 342.766 26.0003 342.09 25.7976C341.424 25.595 340.686 25.4936 339.876 25.4936C338.36 25.4936 337.029 25.87 335.88 26.6227C334.742 27.3754 333.854 28.4707 333.217 29.9085C332.58 31.3368 332.262 33.0834 332.262 35.1485C332.262 37.2137 332.575 38.97 333.202 40.4175C333.83 41.865 334.718 42.9699 335.866 43.7323C337.014 44.485 338.37 44.8613 339.933 44.8613C341.352 44.8613 342.563 44.6104 343.567 44.1086C344.58 43.5972 345.352 42.8782 345.883 41.9518C346.423 41.0254 346.693 39.9301 346.693 38.666L347.967 38.8542H340.324V34.1353H352.729V37.8699C352.729 40.4754 352.179 42.7142 351.079 44.5863C349.979 46.4488 348.464 47.8866 346.534 48.8999C344.604 49.9035 342.394 50.4053 339.904 50.4053C337.125 50.4053 334.684 49.7925 332.58 48.567C330.476 47.3318 328.836 45.5803 327.659 43.3125C326.491 41.0351 325.907 38.3331 325.907 35.2064C325.907 32.8036 326.254 30.6613 326.949 28.7795C327.654 26.8881 328.638 25.2862 329.902 23.9738C331.166 22.6613 332.638 21.6626 334.317 20.9774C335.996 20.2922 337.815 19.9497 339.774 19.9497C341.453 19.9497 343.017 20.1957 344.464 20.6879C345.912 21.1704 347.195 21.8556 348.315 22.7434C349.444 23.6312 350.365 24.6879 351.079 25.9134C351.793 27.1293 352.252 28.4707 352.454 29.9375H346.085Z" fill="black"/>
</g>
<defs>
<filter id="filter0_d_498_314" x="9.74377" y="19.9497" width="132.158" height="33.1301" filterUnits="userSpaceOnUse" color-interpolation-filters="sRGB">
<feFlood flood-opacity="0" result="BackgroundImageFix"/>
<feColorMatrix in="SourceAlpha" type="matrix" values="0 0 0 0 0 0 0 0 0 0 0 0 0 0 0 0 0 0 127 0" result="hardAlpha"/>
<feOffset dx="2.66" dy="2.66"/>
<feComposite in2="hardAlpha" operator="out"/>
<feColorMatrix type="matrix" values="0 0 0 0 1 0 0 0 0 0.776471 0 0 0 0 0.105882 0 0 0 1 0"/>
<feBlend mode="normal" in2="BackgroundImageFix" result="effect1_dropShadow_498_314"/>
<feBlend mode="normal" in="SourceGraphic" in2="effect1_dropShadow_498_314" result="shape"/>
</filter>
<filter id="filter1_d_498_314" x="176.716" y="19.9497" width="178.731" height="33.1731" filterUnits="userSpaceOnUse" color-interpolation-filters="sRGB">
<feFlood flood-opacity="0" result="BackgroundImageFix"/>
<feColorMatrix in="SourceAlpha" type="matrix" values="0 0 0 0 0 0 0 0 0 0 0 0 0 0 0 0 0 0 127 0" result="hardAlpha"/>
<feOffset dx="2.71746" dy="2.71746"/>
<feComposite in2="hardAlpha" operator="out"/>
<feColorMatrix type="matrix" values="0 0 0 0 1 0 0 0 0 0.776471 0 0 0 0 0.105882 0 0 0 1 0"/>
<feBlend mode="normal" in2="BackgroundImageFix" result="effect1_dropShadow_498_314"/>
<feBlend mode="normal" in="SourceGraphic" in2="effect1_dropShadow_498_314" result="shape"/>
</filter>
</defs>
</svg>
